# xmcd
#
# Track frame offsets: 
#        150
#        24203
#        49457
#        72458
#        93350
#        117110
#        140273
#        162228
#        184395
#        216287
#        237256
#
# Disc length: 3191 seconds
#
# Revision: 1
# Processed by: cddbd v1.5.2PL0 Copyright (c) Steve Scherf et al.
# Submitted via: ExactAudioCopy v0.99pb5
#
DISCID=9b0c750b
DTITLE=Various Artist - An All Star Tribute To Maze Feat. Frankie Beverly
DYEAR=2009
DGENRE=Soul
TTITLE0=Silky Soul - Musiq Soulchild
TTITLE1=Golden Time Of Day - Kem
TTITLE2=We Are One - Raheem Devaughn
TTITLE3=Before I Let Go - Mary J. Blige
TTITLE4=Can't Get Over You - Joe
TTITLE5=Happy Feelin's - Ledisi
TTITLE6=Back In Stride - Mint Condition
TTITLE7=Never Let You Down - Kevon Edmonds
TTITLE8=Joy and Pain - Avant
TTITLE9=I Wanna Thank You - The Clark Sisters and J. Moss
TTITLE10=Joy and Pain (Reprise) - Instrumental
EXTD=
EXTT0=
EXTT1=
EXTT2=
EXTT3=
EXTT4=
EXTT5=
EXTT6=
EXTT7=
EXTT8=
EXTT9=
EXTT10=
PLAYORDER=
